<svg xmlns="http://www.w3.org/2000/svg" viewBox="0 0 110.23 108.12"><defs><style>.cls-1{fill:#313534;}</style></defs><title>Asset 4</title><g id="Layer_2" data-name="Layer 2"><g id="Layer_1-2" data-name="Layer 1"><g id="Overflight"><path class="cls-1" d="M69.83,108.12a32.5,32.5,0,1,1,32.5-32.5A32.54,32.54,0,0,1,69.83,108.12Zm0-61a28.5,28.5,0,1,0,28.5,28.5A28.53,28.53,0,0,0,69.83,47.12Z"/><path class="cls-1" d="M32,101.78c-1.39-.67-2.77-1.4-4.1-2.17l1-1.73c1.28.75,2.61,1.45,4,2.09Zm-11.66-7.5c-1.18-1-2.33-2-3.42-3.13l1.41-1.42c1.05,1,2.16,2.06,3.29,3Zm-9.4-10.2c-.89-1.26-1.73-2.57-2.51-3.89l1.73-1c.75,1.27,1.56,2.54,2.42,3.75ZM4.46,71.82c-.54-1.44-1-2.93-1.42-4.41L5,66.88c.39,1.43.85,2.86,1.36,4.25Zm-3-13.53c-.13-1.52-.2-3.08-.21-4.63h2c0,1.49.07,3,.21,4.45Z"/><path class="cls-1" d="M109.71,61.62l-2-.3c.23-1.54.4-3.11.5-4.66l2,.12C110.13,58.39,110,60,109.71,61.62ZM108,47.31c-.19-1.55-.46-3.1-.79-4.62l2-.43c.35,1.58.62,3.19.82,4.8Zm-3.63-13.53c-.6-1.43-1.29-2.85-2-4.23l1.76-.94c.77,1.43,1.47,2.9,2.1,4.39Zm-7.19-12c-1-1.22-2-2.4-3.09-3.53l1.45-1.38c1.12,1.16,2.2,2.39,3.21,3.66ZM87,12.07c-1.26-.91-2.57-1.78-3.91-2.58l1-1.72c1.38.83,2.75,1.73,4.06,2.68ZM74.63,5.42c-1.45-.55-2.95-1-4.45-1.46L70.72,2c1.56.44,3.11,1,4.62,1.52ZM61,2.25C59.43,2.1,57.85,2,56.29,2l0-2c1.62,0,3.25.1,4.85.26Z"/><path class="cls-1" d="M58.37,75.12H48.29c-2.74,0-5-2.52-5-5.62h2c0,2,1.33,3.62,3,3.62H58.37c1.63,0,3-1.62,3-3.62V65.91c0-3.1,2.22-5.62,5-5.62,1.71,0,3-1.62,3-3.62V50.74c0-2-1.33-3.62-3-3.62v-2c2.73,0,5,2.52,5,5.62v5.93c0,3.1-2.23,5.62-5,5.62-1.71,0-3,1.62-3,3.62V69.5C63.33,72.6,61.1,75.12,58.37,75.12Z"/><path class="cls-1" d="M82.84,90.12h-8a2.48,2.48,0,0,1-2.48-2.48c.75-8.52,1.67-8.52,2.48-8.52h2a.49.49,0,0,0,.49-.48v-.32l3-4.2h.51a.49.49,0,0,0,.49-.48v-2a2.49,2.49,0,0,1,2.48-2.49h2a2.5,2.5,0,0,1,2.49,2.49v2a.49.49,0,0,0,.48.48,2.51,2.51,0,0,1,2.47,2l5,4.56v.44c0,1.58-6.28,6-7.49,6h-3a.49.49,0,0,0-.48.49A2.49,2.49,0,0,1,82.84,90.12Zm-7.52-9a43.19,43.19,0,0,0-1,6.6.5.5,0,0,0,.49.4h8a.49.49,0,0,0,.49-.48,2.49,2.49,0,0,1,2.48-2.52h2.94A27.45,27.45,0,0,0,94,81.28l-4.68-4.23v-.44a.49.49,0,0,0-.49-.49,2.49,2.49,0,0,1-2.51-2.48v-2a.49.49,0,0,0-.49-.49h-2a.49.49,0,0,0-.48.49v2a2.51,2.51,0,0,1-1.93,2.42L79.3,79a2.48,2.48,0,0,1-2.46,2.13Z"/><path class="cls-1" d="M37.91,38.11h0a2.86,2.86,0,0,1-2-.85L24.22,25.59,7,35.63,5.91,34.54c-1.51-1.52-1-3.22,5.21-10.95,1.88-2.34,3.82-4.64,5-6.06L4.71,6.08A3,3,0,0,1,4.08,2.8,3,3,0,0,1,7.54,1l.39.14L24.49,9l5.34-5.33a7.5,7.5,0,0,1,2.84-1.75l.38-.09,4.28-.64A3,3,0,0,1,41,4.82L40.16,9.4a7.37,7.37,0,0,1-1.85,2.75l-5.41,5.4,8,16.77a3.09,3.09,0,0,1-3,3.79Zm-13-17.53,9.68,9.68L28.07,16.73l7.41-7.41a4,4,0,0,0,.86-1.12l.48-2.9-3,.44a3.68,3.68,0,0,0-1.19.75l-7.32,7.33L11.56,7.27,21.62,17.34l-1.23,1.4c-2.46,2.82-5.07,6-7.16,8.63Z"/><polygon class="cls-1" points="12.36 40.45 10.59 29.86 0 28.09 0.66 24.15 14.07 26.38 16.3 39.79 12.36 40.45"/></g></g></g></svg>