<svg xmlns="http://www.w3.org/2000/svg" viewBox="0 0 124.66 124.81"><defs><style>.cls-1{fill:#313534;}</style></defs><title>Asset 2</title><g id="Layer_2" data-name="Layer 2"><g id="Layer_1-2" data-name="Layer 1"><g id="Airworthy"><path class="cls-1" d="M8.17,102.21,0,94,17.36,64.73l-2.65-2.65,8.64-14,2.42,2.42L28,46.81,13.43,33.43c-3.27-3.14-6.78-10-6.83-15.17a7.31,7.31,0,0,1,1.93-5.5l3.58-3.59a7.42,7.42,0,0,1,5.51-1.93c5.19,0,12,3.56,15.13,6.81L46.09,28.34l4.4-2.6L48.1,23.35l14-8.64,2.63,2.62L94.05,0l8.16,8.17L77,33.43c2.28,4,2.28,8-.1,10.38s-6.42,2.38-10.38.1l-2.33,2.34L70,53.34l-3.08,2.55L58.73,46,66,38.74l1.38,1C70,41.62,72.84,42.16,74,41s.64-4-1.25-6.65l-1-1.38L96.56,8.17,93.41,5,64.08,22.36l-2.59-2.59-7,4.33L57,26.56l-11.6,6.86L29.85,16.8c-2.48-2.58-8.26-5.52-12.28-5.56a3.88,3.88,0,0,0-2.63.76l-3.59,3.59a3.79,3.79,0,0,0-.75,2.63c0,4,3,9.8,5.57,12.29l16.9,15.55L26.59,57,24.1,54.5l-4.33,7,2.61,2.61L5,93.41l3.15,3.15L32.08,72.65l1.33.76C35.72,74.75,38,75,39,74s.76-3.3-.57-5.61L37.69,67l8-8,17.26,14-2.53,3.11L45.94,64.45l-3.32,3.31c1.56,3.53,1.3,7-.77,9s-5.52,2.34-9.05.78Z"/><rect class="cls-1" x="93.66" y="35.62" width="2" height="3"/><rect class="cls-1" x="93.66" y="42.62" width="2" height="3"/><rect class="cls-1" x="96.66" y="39.62" width="3" height="2"/><rect class="cls-1" x="89.66" y="39.62" width="3" height="2"/><rect class="cls-1" x="111.66" y="41.62" width="2" height="3"/><rect class="cls-1" x="111.66" y="48.62" width="2" height="3"/><rect class="cls-1" x="114.66" y="45.62" width="3" height="2"/><rect class="cls-1" x="107.66" y="45.62" width="3" height="2"/><rect class="cls-1" x="49.66" y="5.62" width="2" height="3"/><rect class="cls-1" x="49.66" y="12.62" width="2" height="3"/><rect class="cls-1" x="52.66" y="9.62" width="3" height="2"/><rect class="cls-1" x="45.66" y="9.62" width="3" height="2"/><rect class="cls-1" x="41.66" y="89.62" width="2" height="3"/><rect class="cls-1" x="41.66" y="96.62" width="2" height="3"/><rect class="cls-1" x="44.66" y="93.62" width="3" height="2"/><rect class="cls-1" x="37.66" y="93.62" width="3" height="2"/><rect class="cls-1" x="59.66" y="106.62" width="2" height="3"/><rect class="cls-1" x="59.66" y="113.62" width="2" height="3"/><rect class="cls-1" x="62.66" y="110.62" width="3" height="2"/><rect class="cls-1" x="55.66" y="110.62" width="3" height="2"/><path class="cls-1" d="M94.66,124.81l-.82-.37c-1.19-.53-29.18-13.25-29.18-29.82V59l2.7,1a26.75,26.75,0,0,0,9.3,1.61A31.84,31.84,0,0,0,91.55,58a11.2,11.2,0,0,1,10.56-.32c3.49,1.79,8.5,3.93,12.55,3.93a27.29,27.29,0,0,0,7.45-1l2.55-.71V94.62c0,16.57-28,29.29-29.19,29.82Zm-26-60.2v30c0,12.59,21.5,23.62,26,25.79,4.5-2.17,26-13.2,26-25.79V65.06a32.2,32.2,0,0,1-6,.56c-4.85,0-10.49-2.38-14.38-4.37a7.1,7.1,0,0,0-6.71.22,35.63,35.63,0,0,1-16.91,4.15A31.89,31.89,0,0,1,68.66,64.61Z"/><path class="cls-1" d="M92.64,98.62A2,2,0,0,1,91.22,98l-8-8a2,2,0,1,1,2.83-2.82l6.48,6.49,14.11-15.91a2,2,0,1,1,3,2.66L94.13,98a1.92,1.92,0,0,1-1.43.67Z"/><rect class="cls-1" x="36.12" y="62.12" width="4.18" height="2" transform="translate(-33.71 46.64) rotate(-45.91)"/><rect class="cls-1" x="2.94" y="79.12" width="37.59" height="2" transform="translate(-50.93 39.99) rotate(-45.91)"/><rect class="cls-1" x="59.98" y="23.2" width="33.36" height="2" transform="translate(4.71 60.06) rotate(-44.01)"/><rect class="cls-1" x="59.07" y="38.17" width="4.17" height="2" transform="translate(-10.04 53.49) rotate(-44.01)"/></g></g></g></svg>