<svg xmlns="http://www.w3.org/2000/svg" viewBox="0 0 101.25 111"><defs><style>.cls-1{fill:#313534;}</style></defs><title>Asset 3</title><g id="Layer_2" data-name="Layer 2"><g id="Layer_1-2" data-name="Layer 1"><g id="Airport"><path class="cls-1" d="M67,111H0V73H67ZM4,107H63V77H4Z"/><rect class="cls-1" x="58" y="82" width="2" height="20"/><path class="cls-1" d="M94,111H70V47H94Zm-20-4H90V51H74Z"/><path class="cls-1" d="M98.78,45H65.22L62.75,24h38.5Zm-30-4H95.22l1.53-13H67.25Z"/><rect class="cls-1" x="76" y="27" width="2" height="14"/><rect class="cls-1" x="87" y="27" width="2" height="14"/><path class="cls-1" d="M100,28H65V26c0-6.84,7.52-12,17.5-12S100,19.16,100,26ZM69.41,24H95.59c-1.46-3.49-6.69-6-13.09-6S70.87,20.51,69.41,24Z"/><rect class="cls-1" x="11" y="81" width="41" height="4"/><rect class="cls-1" x="11" y="89" width="24" height="2"/><rect class="cls-1" x="11" y="96" width="11" height="2"/><path class="cls-1" d="M23.5,7A3.5,3.5,0,1,1,27,3.5,3.5,3.5,0,0,1,23.5,7Zm0-5A1.5,1.5,0,1,0,25,3.5,1.5,1.5,0,0,0,23.5,2Z"/><path class="cls-1" d="M56.5,28A3.5,3.5,0,1,1,60,24.5,3.5,3.5,0,0,1,56.5,28Zm0-5A1.5,1.5,0,1,0,58,24.5,1.5,1.5,0,0,0,56.5,23Z"/><path class="cls-1" d="M15.5,66A3.5,3.5,0,1,1,19,62.5,3.5,3.5,0,0,1,15.5,66Zm0-5A1.5,1.5,0,1,0,17,62.5,1.5,1.5,0,0,0,15.5,61Z"/><path class="cls-1" d="M54.5,56A3.5,3.5,0,1,1,58,52.5,3.5,3.5,0,0,1,54.5,56Zm0-5A1.5,1.5,0,1,0,56,52.5,1.5,1.5,0,0,0,54.5,51Z"/><path class="cls-1" d="M41.58,49h0a2.85,2.85,0,0,1-2-.85L27.89,36.47l-17.21,10L9.59,45.41c-1.52-1.51-1-3.22,5.2-10.94,1.88-2.34,3.83-4.64,5-6.06L8.38,17a3,3,0,0,1,2.83-5.1l.39.14,16.56,7.87,5.34-5.33a7.5,7.5,0,0,1,2.84-1.75l.38-.09L41,12.06a3,3,0,0,1,3.62,3.64l-.79,4.58A7.14,7.14,0,0,1,42,23l-5.41,5.41,8,16.77a3.09,3.09,0,0,1-3,3.78Zm-13-17.52,9.68,9.68L31.74,27.61l7.41-7.42A3.78,3.78,0,0,0,40,19.08l.48-2.9-3,.44a3.32,3.32,0,0,0-1.18.75L29,24.69,15.23,18.15,25.29,28.21l-1.23,1.41c-2.45,2.82-5.07,6-7.16,8.63Z"/><polygon class="cls-1" points="16.03 51.33 14.26 40.74 3.67 38.97 4.33 35.03 17.74 37.26 19.97 50.67 16.03 51.33"/></g></g></g></svg>