<svg xmlns="http://www.w3.org/2000/svg" viewBox="0 0 81 123">
<defs>
<style>.cls-1{fill:#313534;}</style>
</defs>
<title>Asset 1</title>
<g id="Layer_2" data-name="Layer 2">
<g id="Layer_1-2" data-name="Layer 1">
<g id="Airman">
<path class="cls-1" d="M50.87,68H33.13c-4.94,0-9.8-4-11.07-9.23A1.84,1.84,0,0,1,22,58.3V36h4V58c.91,3.25,4.12,6,7.13,6H50.87a6.44,6.44,0,0,0,6-5.79L56.7,36.08l4,0,.21,22.24c0,.06,0,.12,0,.19A10.43,10.43,0,0,1,50.87,68Z"/>
<path class="cls-1" d="M41,112.9,33,100.21,35.17,88H45.85l2.2,13.2Zm-6-13.11L41,109.1l5-8.3L44.15,90H36.83Z"/>
<path class="cls-1" d="M43.1,19.91c-.62,0-1.25,0-1.89-.08l-1.85-.16L44.65,13H57.06l-1.27,1.62C55.62,14.83,51.54,19.91,43.1,19.91ZM45.61,15l-2.3,2.91A15.46,15.46,0,0,0,52.46,15Z"/>
<path class="cls-1" d="M39.91,20h0c-8.43,0-12.52-5.12-12.69-5.34L25.94,13H38.36l5.28,6.67-1.85.2C41.16,19.93,40.52,20,39.91,20Zm-9.36-5a15.43,15.43,0,0,0,9.15,2.91L37.39,15Z"/>
<path class="cls-1" d="M62.42,110c-.55,0-1.11,0-1.68-.07l-2-.16,5-5.77h11.4l-1.41,1.65C73.61,105.83,69.94,110,62.42,110Zm2.26-4L63,108a14.64,14.64,0,0,0,7.18-2Z"/>
<path class="cls-1" d="M59.58,110h0c-7.52,0-11.19-4.17-11.34-4.35L46.83,104h11.4l5,5.77-2,.16C60.69,110,60.13,110,59.58,110Zm-7.72-4A14.64,14.64,0,0,0,59,108l-1.72-2Z"/>
<path class="cls-1" d="M61.78,28.66a73.31,73.31,0,0,1-8-.68A106.05,106.05,0,0,0,41,27a106.05,106.05,0,0,0-12.79,1,73.31,73.31,0,0,1-8,.68,10,10,0,0,1-5.68-1.3A6,6,0,0,1,12,22C12,12.1,25.38,0,41,0S70,12.1,70,22C70,26.42,67.24,28.66,61.78,28.66ZM41,23a107.62,107.62,0,0,1,13.26,1,69.9,69.9,0,0,0,7.52.65C66,24.66,66,23.37,66,22,66,14.89,54.8,4,41,4S16,14.89,16,22c0,1.53.53,1.88.76,2a6.72,6.72,0,0,0,3.46.63A69.9,69.9,0,0,0,27.74,24,107.62,107.62,0,0,1,41,23Z"/>
<path class="cls-1" d="M40.5,42.5C25.64,42.5,14,36,14,28h4c0,5,9,10.5,22.5,10.5S63,33,63,28h4C67,36,55.36,42.5,40.5,42.5Z"/>
<path class="cls-1" d="M81,123H0V93.8C0,81.5,12,76,23.8,76H25l16,29.68L56,76H57.2C69.05,76,81,81.5,81,93.8ZM4,119H77V93.8C77,84.06,67.25,80.33,58.42,80l-17.37,34.3L22.62,80C13.77,80.32,4,84.05,4,93.8Z"/>
<path class="cls-1" d="M46,87H35V80.59l6.08-6.09L46,80.65Zm-9-2h7V81.35L40.92,77.5,37,81.41Z"/>
<path class="cls-1" d="M48.89,85.3l-9.6-9.59,11.8-5.64L61.84,76.2Zm-6.18-9,6.4,6.41,9-6.32L51,72.32Z"/>
<path class="cls-1" d="M32,85.25l-12.75-9L30,70.09l14,5.62Zm-9-8.87,9,6.37L40,76.29l-9.89-4Z"/>
<polygon class="cls-1" points="46 54 39 54 39 44 41 44 41 52 46 52 46 54"/>
</g></g></g></svg>