<svg xmlns="http://www.w3.org/2000/svg" viewBox="0 0 119 119"><defs><style>.cls-1{fill:#313534;}</style></defs><title>Asset 6</title><g id="Layer_2" data-name="Layer 2"><g id="Layer_1-2" data-name="Layer 1"><g id="Airplane_Radar" data-name="Airplane Radar"><path class="cls-1" d="M39.5,81A6.5,6.5,0,1,1,46,74.5,6.51,6.51,0,0,1,39.5,81Zm0-9A2.5,2.5,0,1,0,42,74.5,2.5,2.5,0,0,0,39.5,72Z"/><path class="cls-1" d="M25.5,44A9.5,9.5,0,1,1,35,34.5,9.51,9.51,0,0,1,25.5,44Zm0-15A5.5,5.5,0,1,0,31,34.5,5.51,5.51,0,0,0,25.5,29Z"/><path class="cls-1" d="M59.5,103A43.54,43.54,0,0,1,16,59.5a41.86,41.86,0,0,1,4.34-19l1.78.9A39.9,39.9,0,0,0,18,59.5,41.5,41.5,0,1,0,59.5,18c-11.68,0-22.16,4.22-28.76,11.57l-1.48-1.33c7-7.78,18-12.24,30.24-12.24a43.5,43.5,0,0,1,0,87Z"/><path class="cls-1" d="M59.5,85.5a26,26,0,0,1-18.2-7.43l1.4-1.43A24,24,0,1,0,35.5,59.5a20.57,20.57,0,0,0,2.18,10l-1.75,1a22.59,22.59,0,0,1-2.43-11,26,26,0,1,1,26,26Z"/><path class="cls-1" d="M59.5,0A59.5,59.5,0,1,0,119,59.5,59.57,59.57,0,0,0,59.5,0ZM59,115A55.55,55.55,0,0,1,4,60H59Zm0-57H4A55.55,55.55,0,0,1,59,4Zm56,0H63.82L99.94,21.57A55.24,55.24,0,0,1,115,58ZM96.76,18.42,61,55.13V4A55.25,55.25,0,0,1,96.76,18.42ZM61,115V60h54A55.55,55.55,0,0,1,61,115Z"/><path class="cls-1" d="M48.5,34A6.5,6.5,0,1,1,55,27.5,6.51,6.51,0,0,1,48.5,34Zm0-9A2.5,2.5,0,1,0,51,27.5,2.5,2.5,0,0,0,48.5,25Z"/></g></g></g></svg>