<svg xmlns="http://www.w3.org/2000/svg" viewBox="0 0 130.42 129.49"><defs><style>.cls-1{fill:#313534;}</style></defs><title>Asset 5</title><g id="Layer_2" data-name="Layer 2"><g id="Layer_1-2" data-name="Layer 1"><g id="Top_View_Commercial_Airplane" data-name="Top View Commercial Airplane"><path class="cls-1" d="M31.31,36.65l-2-.08a6.21,6.21,0,0,1,1.63-4.29l3.59-3.58a6.07,6.07,0,0,1,4.16-1.63l.1,2a4.19,4.19,0,0,0-2.85,1L32.36,33.7A4.24,4.24,0,0,0,31.31,36.65Z"/><rect class="cls-1" x="83.78" y="75.41" width="2" height="2.74" transform="translate(-29.59 78.36) rotate(-42.96)"/><rect class="cls-1" x="73.07" y="55.03" width="2" height="20.5" transform="translate(-24.62 67.97) rotate(-42.95)"/><rect class="cls-1" x="123.21" y="25.4" width="2" height="9.9" transform="translate(14.92 96.72) rotate(-45)"/><rect class="cls-1" x="97.19" y="0.76" width="2" height="7.13" transform="translate(25.7 70.7) rotate(-45)"/><rect class="cls-1" x="117.21" y="-3.23" width="2" height="26.87" transform="translate(27.41 86.58) rotate(-45)"/><rect class="cls-1" x="116.71" y="38.29" width="2" height="31.11" transform="translate(-3.6 99.01) rotate(-45)"/><rect class="cls-1" x="126.54" y="47.34" width="2" height="4.39" transform="translate(2.33 104.69) rotate(-45)"/><rect class="cls-1" x="113.23" y="29.84" width="2" height="12.78" transform="translate(7.84 91.39) rotate(-45)"/><rect class="cls-1" x="83.71" y="-0.36" width="2" height="14.14" transform="translate(20.07 61.87) rotate(-45)"/><rect class="cls-1" x="72.95" y="-0.88" width="2" height="21.94" transform="translate(14.52 55.25) rotate(-45)"/><rect class="cls-1" x="126.71" y="77.29" width="2" height="2.83" transform="translate(-18.25 113.36) rotate(-45)"/><rect class="cls-1" x="110.21" y="44.53" width="2" height="35.35" transform="translate(-11.42 96.86) rotate(-45)"/><rect class="cls-1" x="58.21" y="-1.81" width="2" height="24.04" transform="translate(10.12 44.86) rotate(-45)"/><rect class="cls-1" x="57.86" y="22.37" width="2" height="3.25" transform="translate(0.27 48.66) rotate(-45.01)"/><rect class="cls-1" x="45.21" y="-0.67" width="2" height="24.04" transform="translate(5.51 36) rotate(-45)"/><rect class="cls-1" x="122.21" y="111.99" width="2" height="12.72" transform="translate(-47.6 121.79) rotate(-45)"/><rect class="cls-1" x="13.71" y="-1.47" width="2" height="22.63" transform="translate(-2.66 13.29) rotate(-45)"/><rect class="cls-1" x="125.71" y="103.46" width="2" height="8.49" transform="translate(-39.05 121.15) rotate(-45)"/><rect class="cls-1" x="24.71" y="-0.36" width="2" height="14.14" transform="translate(2.79 20.15) rotate(-45)"/><rect class="cls-1" x="99.71" y="123.02" width="2" height="5.65" transform="translate(-59.49 108.08) rotate(-45)"/><rect class="cls-1" x="72.31" y="90.53" width="2" height="15.84" transform="translate(-48.14 80.67) rotate(-45)"/><rect class="cls-1" x="110.21" y="115.84" width="2" height="12.73" transform="translate(-53.84 114.43) rotate(-45)"/><rect class="cls-1" x="8.71" y="7.98" width="2" height="25.46" transform="translate(-11.8 12.93) rotate(-45)"/><rect class="cls-1" x="19.03" y="29.16" width="2" height="32.03" transform="translate(-26.07 27.4) rotate(-45)"/><rect class="cls-1" x="2.71" y="26.02" width="2" height="5.65" transform="translate(-19.31 11.07) rotate(-45)"/><rect class="cls-1" x="57.93" y="96.79" width="2" height="34.55" transform="translate(-63.4 75.08) rotate(-45)"/><rect class="cls-1" x="78.88" y="111.21" width="2" height="19.33" transform="translate(-62.08 91.88) rotate(-45)"/><rect class="cls-1" x="66.36" y="106.16" width="2" height="4.39" transform="translate(-56.89 79.37) rotate(-45)"/><rect class="cls-1" x="10.21" y="37.36" width="2" height="29.7" transform="translate(-33.63 23.22) rotate(-45)"/><rect class="cls-1" x="7.53" y="52.61" width="2" height="22.13" transform="translate(-42.52 24.68) rotate(-45)"/><rect class="cls-1" x="37.68" y="114.38" width="2" height="16.87" transform="translate(-75.52 63.32) rotate(-45)"/><rect class="cls-1" x="8.34" y="85.88" width="2" height="15.19" transform="translate(-63.36 33.98) rotate(-45)"/><rect class="cls-1" x="49.83" y="118.64" width="2" height="4.39" transform="translate(-70.55 71.33) rotate(-45)"/><rect class="cls-1" x="6.71" y="69.22" width="2" height="16.97" transform="translate(-52.69 28.21) rotate(-45)"/><rect class="cls-1" x="6.71" y="113.36" width="2" height="16.97" transform="translate(-83.9 41.14) rotate(-45)"/><rect class="cls-1" x="12.88" y="95.26" width="2" height="37.25" transform="translate(-76.46 43.17) rotate(-45)"/><rect class="cls-1" x="100.71" y="61.71" width="2" height="14.14" transform="translate(-18.84 92.06) rotate(-45)"/><path class="cls-1" d="M94.22,121.74l-8.66-8.66,4.36-12.75L62,77.6l-3.31,3.32c1.56,3.53,1.3,7-.78,9s-5.55,2.33-9,.78L24.22,115.37l-8.17-8.17L33.41,77.89l-2.65-2.65,8.64-14,2.43,2.42L44,60,29.48,46.59c-3.27-3.15-6.78-10-6.83-15.17a7.3,7.3,0,0,1,1.93-5.5l3.59-3.59a7.3,7.3,0,0,1,5.37-1.93c5.22,0,12.11,3.52,15.26,6.81L62.14,41.5l4.4-2.6-2.39-2.39,14-8.65,2.63,2.63L110.1,13.16l8.17,8.17L93,46.59c2.28,4,2.29,8-.1,10.38a6.38,6.38,0,0,1-4.64,1.79,11.86,11.86,0,0,1-5.74-1.69L80.19,59.4l22.31,27L116.71,82l8.63,8.63-11,11,.48,6.23a3.72,3.72,0,0,1-3.73,4h-.3l-6.24-.48ZM90.16,112l4.06,4.07L103,107.3l7.79.6-.6-7.79,9.49-9.49-4.1-4.09L101.12,91,74.79,59.15,82,51.9l1.38,1a8.78,8.78,0,0,0,4.84,1.87,2.45,2.45,0,0,0,1.81-.62c1.18-1.18.64-4-1.24-6.65l-1-1.38,24.78-24.78-3.15-3.15L80.13,35.51l-2.59-2.58-7,4.32L73,39.72,61.41,46.58,45.9,30c-2.51-2.62-8.34-5.56-12.36-5.56a3.73,3.73,0,0,0-2.55.76l-3.58,3.59a3.74,3.74,0,0,0-.76,2.63c0,4,3,9.8,5.57,12.29l16.9,15.55L42.64,70.15l-2.49-2.49-4.32,7,2.6,2.61L21.08,106.57l3.14,3.14,23.91-23.9,1.33.76c2.27,1.31,4.63,1.55,5.61.57s.77-3.3-.57-5.61l-.76-1.33,8-8L94.61,99Z"/></g></g></g></svg>