<svg xmlns="http://www.w3.org/2000/svg" xmlns:xlink="http://www.w3.org/1999/xlink" style="width: 0; height: 0; visibility: hidden; position: absolute;" aria-hidden="true">

<symbol  viewBox='0 0 24 24' id='facebook'>
    <path fill="var(--spriteColor, #fff" d="M15.1 5.3H17V2.1a26.1 26.1 0 00-2.7-.1c-2.8 0-4.6 1.7-4.6 4.7v2.6h-3V13h3v9h3.7v-9.1h3l.5-3.6h-3.5V7c0-1 .2-1.7 1.7-1.7z"></path>
  </symbol>
  
  <symbol  viewBox='0 0 24 24' id='instagram'>
    <path fill="var(--spriteColor, #fff" d="M17.3 5.5a1.2 1.2 0 101.2 1.2 1.2 1.2 0 00-1.2-1.2zM22 7.9a7.6 7.6 0 00-.4-2.5 5 5 0 00-1.2-1.7 4.7 4.7 0 00-1.8-1.2 7.3 7.3 0 00-2.4-.4L12 2H7.9a7.3 7.3 0 00-2.5.5 4.8 4.8 0 00-1.7 1.2 4.7 4.7 0 00-1.2 1.8 7.3 7.3 0 00-.4 2.4L2 12v4.1a7.3 7.3 0 00.5 2.4 4.7 4.7 0 001.2 1.8 4.8 4.8 0 001.8 1.2 7.3 7.3 0 002.4.4l4.1.1h4.1a7.3 7.3 0 002.4-.5 4.7 4.7 0 001.8-1.2 4.8 4.8 0 001.2-1.7 7.6 7.6 0 00.4-2.5L22 12V7.9zM20.1 16a5.6 5.6 0 01-.3 1.9A3 3 0 0119 19a3.2 3.2 0 01-1.1.8 5.6 5.6 0 01-1.9.3H8a5.7 5.7 0 01-1.9-.3A3.3 3.3 0 015 19a3 3 0 01-.7-1.1 5.5 5.5 0 01-.4-1.9l-.1-4V8a5.5 5.5 0 01.4-1.9A3 3 0 015 5a3.1 3.1 0 011.1-.8A5.7 5.7 0 018 3.9l4-.1h4a5.6 5.6 0 011.9.4A3 3 0 0119 5a3 3 0 01.7 1.1A5.6 5.6 0 0120 8l.1 4v4zM12 6.9a5.1 5.1 0 105.1 5.1A5.1 5.1 0 0012 6.9zm0 8.4a3.3 3.3 0 113.3-3.3 3.3 3.3 0 01-3.3 3.3z"></path>
  </symbol>
  
  <symbol  viewBox='0 0 24 24' id='twitter'>
    <path fill="var(--spriteColor, #fff" d="M22 5.8a8.5 8.5 0 01-2.4.6 4.1 4.1 0 001.8-2.2 8.2 8.2 0 01-2.6 1 4.1 4.1 0 00-7 3.7 11.6 11.6 0 01-8.4-4.3 4.2 4.2 0 00-.6 2 4 4 0 001.9 3.5 4 4 0 01-1.9-.5 4.1 4.1 0 003.3 4 4 4 0 01-1.1.2 4.9 4.9 0 01-.8 0 4.1 4.1 0 003.9 2.8A8.2 8.2 0 013 18.3a8 8 0 01-1 0A11.6 11.6 0 008.3 20 11.6 11.6 0 0020 8.4V8a8.4 8.4 0 002-2.1z"></path>
  </symbol
  
  ><symbol  viewBox='0 0 24 24' id='youtube'>
    <path fill="var(--spriteColor, #fff" d="M23 9.7a8.5 8.5 0 00-1-4.1 3 3 0 00-1.6-1 78.4 78.4 0 00-8.4-.3 78.5 78.5 0 00-8.3.3 2.9 2.9 0 00-1.5.7c-.9.8-1 2.3-1.1 3.5a48.3 48.3 0 000 6.4 9.6 9.6 0 00.3 2 3.1 3.1 0 00.7 1.4 2.9 2.9 0 001.5.8 45.2 45.2 0 006.5.3c3.5 0 6.6 0 10.2-.3a2.9 2.9 0 001.5-.7 2.5 2.5 0 00.6-1 10.6 10.6 0 00.6-3.5V9.7zM9.7 15V8.6l6 3-6 3.2z"></path>
  </symbol></svg>